<?xml version="1.0" standalone="no"?>
<!DOCTYPE svg PUBLIC "-//W3C//DTD SVG 20010904//EN"
 "http://www.w3.org/TR/2001/REC-SVG-20010904/DTD/svg10.dtd">
<svg version="1.0" xmlns="http://www.w3.org/2000/svg"
 width="128.000000pt" height="128.000000pt" viewBox="0 0 128.000000 128.000000"
 preserveAspectRatio="xMidYMid meet">
<metadata>
Created by potrace 1.11, written by Peter Selinger 2001-2013
</metadata>
<g transform="translate(0.000000,128.000000) scale(0.100000,-0.100000)"
fill="#000000" stroke="none">
<path d="M494 1220 c-109 -28 -189 -73 -271 -151 -46 -44 -127 -158 -119 -167
3 -2 21 6 41 18 41 25 101 35 107 17 3 -7 4 -108 4 -225 -1 -134 3 -212 9
-213 6 -1 32 -1 58 -1 48 0 48 -1 45 -32 l-3 -31 -143 0 c-79 0 -142 -4 -142
-9 0 -17 69 -135 97 -167 78 -89 174 -155 282 -190 69 -23 212 -32 297 -17
137 23 296 127 376 245 32 48 70 125 63 131 -3 3 -64 6 -135 5 l-130 -1 0 34
0 34 48 -1 c90 -2 82 -22 82 186 l0 185 -53 -30 c-65 -36 -71 -37 -85 -5 -11
23 -9 26 29 45 22 12 57 30 77 42 43 24 99 32 104 15 2 -7 4 -106 3 -220 0
-115 3 -211 8 -214 20 -12 77 -8 83 7 14 33 13 197 -1 260 -47 204 -206 378
-405 441 -92 30 -233 33 -326 9z m220 -284 c48 -20 85 -74 100 -147 28 -138
-3 -278 -74 -331 -33 -24 -106 -36 -152 -25 -47 12 -103 72 -118 126 -27 103
-14 245 30 317 39 63 140 91 214 60z"/>
<path d="M582 871 c-32 -27 -54 -88 -57 -158 -2 -35 -1 -63 2 -63 8 0 213 150
213 156 0 14 -25 51 -44 66 -28 23 -87 23 -114 -1z"/>
<path d="M641 654 c-88 -65 -101 -78 -95 -97 28 -96 156 -92 190 6 16 46 26
155 15 161 -4 3 -54 -29 -110 -70z"/>
<path d="M119 836 c-51 -28 -58 -35 -67 -76 -14 -57 -9 -234 6 -253 11 -13
106 -16 118 -4 2 2 3 85 2 184 l-3 180 -56 -31z"/>
</g>
</svg>
